<svg width="16" height="17" viewBox="0 0 16 17" fill="none" xmlns="http://www.w3.org/2000/svg">
<g id="insta.b2ad3b2d9b7a69e36b1540a44c68a15c.svg" clip-path="url(#clip0_1432_379)">
<path id="Vector" d="M7.53658 4.78586C5.39609 4.78586 3.66862 6.61909 3.66862 8.89062C3.66862 11.1621 5.39609 12.9954 7.53658 12.9954C9.67706 12.9954 11.4045 11.1621 11.4045 8.89062C11.4045 6.61909 9.67706 4.78586 7.53658 4.78586ZM7.53658 11.5584C6.15233 11.5584 5.02269 10.3596 5.02269 8.89062C5.02269 7.42164 6.15233 6.22283 7.53658 6.22283C8.92082 6.22283 10.0505 7.42164 10.0505 8.89062C10.0505 10.3596 8.92082 11.5584 7.53658 11.5584ZM11.563 3.66109C11.0632 3.66109 10.6596 4.08939 10.6596 4.61974C10.6596 5.15009 11.0632 5.57838 11.563 5.57838C12.0627 5.57838 12.4663 5.15209 12.4663 4.61974C12.4664 4.4938 12.4432 4.36908 12.3978 4.2527C12.3525 4.13632 12.286 4.03058 12.202 3.94152C12.1181 3.85247 12.0185 3.78187 11.9088 3.73375C11.7992 3.68563 11.6816 3.66093 11.563 3.66109ZM15.0764 8.89062C15.0764 7.78587 15.0858 6.69114 15.0273 5.5884C14.9689 4.30753 14.6935 3.17076 13.8109 2.23413C12.9264 1.29549 11.8571 1.0053 10.6502 0.943255C9.60917 0.881213 8.57759 0.89122 7.53846 0.89122C6.49745 0.89122 5.46587 0.881213 4.42674 0.943255C3.21977 1.0053 2.14859 1.2975 1.26599 2.23413C0.381511 3.17277 0.108057 4.30753 0.049594 5.5884C-0.00886853 6.69315 0.000560948 7.78788 0.000560948 8.89062C0.000560948 9.99337 -0.00886853 11.0901 0.049594 12.1928C0.108057 13.4737 0.383397 14.6105 1.26599 15.5471C2.15048 16.4857 3.21977 16.7759 4.42674 16.838C5.46775 16.9 6.49934 16.89 7.53846 16.89C8.57947 16.89 9.61105 16.9 10.6502 16.838C11.8571 16.7759 12.9283 16.4837 13.8109 15.5471C14.6954 14.6085 14.9689 13.4737 15.0273 12.1928C15.0877 11.0901 15.0764 9.99537 15.0764 8.89062ZM13.4168 13.6098C13.2791 13.974 13.1132 14.2462 12.8472 14.5264C12.5813 14.8086 12.3267 14.9847 11.9835 15.1308C10.9915 15.5491 8.63605 15.455 7.53658 15.455C6.4371 15.455 4.07974 15.5491 3.08776 15.1328C2.74453 14.9867 2.48805 14.8106 2.22402 14.5284C1.95811 14.2462 1.79216 13.976 1.65449 13.6118C1.26222 12.5571 1.35086 10.0574 1.35086 8.89062C1.35086 7.72383 1.26222 5.22215 1.65449 4.16944C1.79216 3.80519 1.95811 3.533 2.22402 3.25282C2.48994 2.97263 2.74453 2.79451 3.08776 2.6484C4.07974 2.23212 6.4371 2.32618 7.53658 2.32618C8.63605 2.32618 10.9934 2.23212 11.9854 2.6484C12.3286 2.79451 12.5851 2.97062 12.8491 3.25282C13.115 3.53501 13.281 3.80519 13.4187 4.16944C13.8109 5.22215 13.7223 7.72383 13.7223 8.89062C13.7223 10.0574 13.8109 12.5571 13.4168 13.6098Z" fill="#929292"/>
</g>
<defs>
<clipPath id="clip0_1432_379">
<rect width="16" height="16" fill="white" transform="translate(0 0.890625)"/>
</clipPath>
</defs>
</svg>
