<svg width="20" height="18" viewBox="0 0 20 18" fill="none" xmlns="http://www.w3.org/2000/svg">
<g id="twittersvg.21380c2b050fbd87e4bc267f0815c214.svg" clip-path="url(#clip0_1432_365)">
<path id="Vector" d="M19.5353 2.91309C18.826 3.21907 18.0542 3.43927 17.2591 3.52504C18.0845 3.03464 18.7027 2.25989 18.9975 1.34615C18.2229 1.80694 17.3744 2.13005 16.4895 2.30115C16.1197 1.90577 15.6724 1.59079 15.1755 1.37583C14.6785 1.16089 14.1427 1.05057 13.6013 1.05177C11.4108 1.05177 9.64916 2.82733 9.64916 5.00622C9.64916 5.31219 9.68624 5.61817 9.74655 5.91255C6.4666 5.74102 3.54133 4.17407 1.59656 1.77497C1.2422 2.38023 1.0565 3.06938 1.05879 3.77075C1.05879 5.14298 1.75649 6.35296 2.82045 7.06457C2.19344 7.03986 1.58112 6.86755 1.03329 6.56158V6.61025C1.03329 8.53188 2.39162 10.1243 4.20195 10.4905C3.86204 10.5788 3.51238 10.624 3.16119 10.625C2.90389 10.625 2.66051 10.5995 2.4148 10.5647C2.91548 12.1317 4.37348 13.2698 6.10964 13.3069C4.75131 14.3708 3.04992 14.9966 1.2025 14.9966C0.87103 14.9966 0.565059 14.9851 0.247498 14.948C1.99988 16.0722 4.0791 16.7213 6.31826 16.7213C13.5874 16.7213 17.5651 10.6991 17.5651 5.47213C17.5651 5.3006 17.5651 5.12908 17.5534 4.95755C18.323 4.39428 18.9975 3.69657 19.5353 2.91309Z" fill="white"/>
</g>
<defs>
<clipPath id="clip0_1432_365">
<rect width="19.995" height="16.77" fill="white" transform="translate(0.00250244 0.500977)"/>
</clipPath>
</defs>
</svg>
