<svg width="18" height="21" viewBox="0 0 18 21" fill="none" xmlns="http://www.w3.org/2000/svg">
<path d="M2.21347 20.8651C1.81347 20.8651 1.46347 20.7151 1.16347 20.4151C0.86347 20.1151 0.71347 19.7651 0.71347 19.3651V4.29014H2.21347V19.3651H14.0635V20.8651H2.21347ZM5.21347 17.8651C4.81347 17.8651 4.46347 17.7151 4.16347 17.4151C3.86347 17.1151 3.71347 16.7651 3.71347 16.3651V2.36514C3.71347 1.96514 3.86347 1.61514 4.16347 1.31514C4.46347 1.01514 4.81347 0.865137 5.21347 0.865137H16.2135C16.6135 0.865137 16.9635 1.01514 17.2635 1.31514C17.5635 1.61514 17.7135 1.96514 17.7135 2.36514V16.3651C17.7135 16.7651 17.5635 17.1151 17.2635 17.4151C16.9635 17.7151 16.6135 17.8651 16.2135 17.8651H5.21347ZM5.21347 16.3651H16.2135V2.36514H5.21347V16.3651Z" fill="white"/>
</svg>
