<svg width="12" height="13" viewBox="0 0 12 13" fill="none" xmlns="http://www.w3.org/2000/svg">
<rect width="12" height="13" fill="#777777"/>
<g id="DESKTOP" clip-path="url(#clip0_59_2249)">
<rect width="1920" height="15128" transform="translate(-1460 -14882)" fill="#000813"/>
<g id="Frame 6101">
<g id="Frame 6019">
<g id="Frame 6017">
<g id="Frame 6015">
<g id="Frame 6014">
<g id="Button">
<rect x="-8.5" y="-7.5" width="29" height="29" rx="5.5" stroke="#E5E7EB"/>
<g id="link.ce6e2b1e73b0dff509915a565115dcad.svg" clip-path="url(#clip1_59_2249)">
<g id="link.ce6e2b1e73b0dff509915a565115dcad.svg fill" clip-path="url(#clip2_59_2249)">
<g id="link.ce6e2b1e73b0dff509915a565115dcad.svg_2" clip-path="url(#clip3_59_2249)">
<path id="Vector" d="M6.39708 6.05792C5.95524 5.61626 5.35609 5.36816 4.73136 5.36816C4.10663 5.36816 3.50747 5.61626 3.06563 6.05792L1.39937 7.72365C0.957517 8.1655 0.70929 8.76477 0.70929 9.38964C0.70929 10.0145 0.957517 10.6138 1.39937 11.0556C1.84122 11.4974 2.44049 11.7457 3.06536 11.7457C3.69023 11.7457 4.28951 11.4974 4.73136 11.0556L5.56422 10.2228" stroke="#929292" stroke-width="1.33333" stroke-linecap="round" stroke-linejoin="round"/>
<path id="Vector_2" d="M4.73138 7.72393C5.17323 8.16559 5.77238 8.41369 6.39711 8.41369C7.02184 8.41369 7.62099 8.16559 8.06284 7.72393L9.7291 6.0582C10.171 5.61635 10.4192 5.01707 10.4192 4.3922C10.4192 3.76734 10.171 3.16806 9.7291 2.72621C9.28725 2.28436 8.68798 2.03613 8.06311 2.03613C7.43824 2.03613 6.83896 2.28436 6.39711 2.72621L5.56425 3.55907" stroke="#929292" stroke-width="1.33333" stroke-linecap="round" stroke-linejoin="round"/>
</g>
</g>
</g>
</g>
</g>
</g>
</g>
</g>
</g>
</g>
<defs>
<clipPath id="clip0_59_2249">
<rect width="1920" height="15128" fill="white" transform="translate(-1460 -14882)"/>
</clipPath>
<clipPath id="clip1_59_2249">
<rect width="12" height="12" fill="white" transform="translate(0 0.890625)"/>
</clipPath>
<clipPath id="clip2_59_2249">
<rect width="12" height="12" fill="white" transform="translate(0 0.890625)"/>
</clipPath>
<clipPath id="clip3_59_2249">
<rect width="12" height="12" fill="white" transform="translate(0 0.890625)"/>
</clipPath>
</defs>
</svg>
