<svg width="20" height="17" viewBox="0 0 20 17" fill="none" xmlns="http://www.w3.org/2000/svg">
<g id="tle.c1602aac360a24278be4d474f838ae95.svg" clip-path="url(#clip0_1432_370)">
<g id="Clip path group">
<mask id="mask0_1432_370" style="mask-type:luminance" maskUnits="userSpaceOnUse" x="1" y="1" width="18" height="16">
<g id="clip0_0_1217">
<path id="Vector" d="M18.7953 1.75H1.07031V16.5208H18.7953V1.75Z" fill="white"/>
</g>
</mask>
<g mask="url(#mask0_1432_370)">
<g id="Group">
<path id="Vector_2" d="M16.8547 1.87474L1.79789 7.85397C1.30868 8.01705 1.36304 8.72367 1.85225 8.88674L5.65722 10.0826L7.1792 14.866C7.28792 15.2465 7.77712 15.3552 8.04891 15.0834L10.2775 13.0178L14.5174 16.1162C14.8435 16.3336 15.2784 16.1705 15.3871 15.79L18.3223 3.17929C18.4854 2.25523 17.6701 1.5486 16.8547 1.87474ZM8.04891 11.0066L7.5597 13.8332L6.47257 9.91953L17.0721 2.96187L8.04891 11.0066Z" fill="white"/>
</g>
</g>
</g>
</g>
<defs>
<clipPath id="clip0_1432_370">
<rect width="19" height="16" fill="white" transform="translate(0.5 0.890625)"/>
</clipPath>
</defs>
</svg>
