<svg xmlns="http://www.w3.org/2000/svg" width="16" height="16" viewBox="0 0 16 16" fill="none">
    <g clip-path="url(#clip0_1701_142)">
        <path d="M3.66669 11.333C4.21897 11.333 4.66669 10.8853 4.66669 10.333C4.66669 9.78072 4.21897 9.33301 3.66669 9.33301C3.1144 9.33301 2.66669 9.78072 2.66669 10.333C2.66669 10.8853 3.1144 11.333 3.66669 11.333Z" fill="white"/>
        <path d="M12.6667 2H3.33333C2.4496 2.00106 1.60237 2.35259 0.97748 2.97748C0.352588 3.60237 0.00105857 4.4496 0 5.33333L0 10.6667C0.00105857 11.5504 0.352588 12.3976 0.97748 13.0225C1.60237 13.6474 2.4496 13.9989 3.33333 14H12.6667C13.5504 13.9989 14.3976 13.6474 15.0225 13.0225C15.6474 12.3976 15.9989 11.5504 16 10.6667V5.33333C15.9989 4.4496 15.6474 3.60237 15.0225 2.97748C14.3976 2.35259 13.5504 2.00106 12.6667 2ZM3.33333 3.33333H12.6667C13.1971 3.33333 13.7058 3.54405 14.0809 3.91912C14.456 4.29419 14.6667 4.8029 14.6667 5.33333H1.33333C1.33333 4.8029 1.54405 4.29419 1.91912 3.91912C2.29419 3.54405 2.8029 3.33333 3.33333 3.33333ZM12.6667 12.6667H3.33333C2.8029 12.6667 2.29419 12.456 1.91912 12.0809C1.54405 11.7058 1.33333 11.1971 1.33333 10.6667V6.66667H14.6667V10.6667C14.6667 11.1971 14.456 11.7058 14.0809 12.0809C13.7058 12.456 13.1971 12.6667 12.6667 12.6667Z" fill="white"/>
    </g>
    <defs>
        <clipPath id="clip0_1701_142">
        <rect width="16" height="16" fill="white"/>
        </clipPath>
    </defs>
</svg>